<?xml version="1.0" encoding="UTF-8"?>
<svg id="Layer_1" xmlns="http://www.w3.org/2000/svg" version="1.1" viewBox="0 0 2000 698.79">
  <!-- Generator: Adobe Illustrator 29.7.1, SVG Export Plug-In . SVG Version: 2.1.1 Build 8)  -->
  <defs>
    <style>
      .st0 {
        fill: #1374ae;
      }

      .st1 {
        fill: #3ebb93;
      }

      .st2 {
        fill: #052542;
      }
    </style>
  </defs>
  <g>
    <path class="st2" d="M634.58,347.3c-3.52-2.92-7.36-5.33-11.53-7.24-4.17-1.9-8.37-3.57-12.6-5-4.23-1.43-8.1-2.86-11.62-4.29-3.52-1.43-6.34-3.13-8.49-5.09-2.14-1.97-3.22-4.56-3.22-7.77,0-3.45,1.43-6.1,4.29-7.95,2.86-1.85,6.73-2.77,11.62-2.77s9.26.96,13.13,2.86c3.87,1.91,7.71,4.82,11.53,8.76l18.23-18.05c-4.77-5.36-10.81-9.59-18.14-12.69-7.33-3.1-15.4-4.65-24.21-4.65s-16.38,1.46-23.05,4.38c-6.67,2.92-11.88,7.18-15.64,12.78-3.75,5.6-5.63,12.27-5.63,20.01,0,6.43,1.07,11.77,3.22,15.99,2.14,4.23,4.97,7.75,8.49,10.54,3.51,2.8,7.35,5.12,11.53,6.97,4.17,1.85,8.37,3.48,12.6,4.91,4.23,1.43,8.1,2.92,11.62,4.47,3.51,1.55,6.34,3.4,8.49,5.54,2.14,2.14,3.22,4.94,3.22,8.4,0,3.81-1.64,6.79-4.91,8.93-3.28,2.14-7.89,3.22-13.85,3.22-6.55,0-12.3-1.28-17.24-3.84-4.94-2.56-9.44-6.17-13.49-10.81l-18.23,18.05c6.19,6.91,13.01,12.06,20.46,15.46,7.44,3.4,16.35,5.09,26.72,5.09,15.13,0,26.98-3.42,35.56-10.28,8.58-6.85,12.87-16.29,12.87-28.32,0-6.55-1.07-12.06-3.22-16.53-2.14-4.47-4.98-8.16-8.49-11.08Z"/>
    <polygon class="st2" points="792.79 377.43 775.48 324.69 747.6 324.69 745.99 324.69 717.04 324.69 688.99 363.54 688.99 281.8 661.65 281.8 661.65 411.54 688.99 411.54 688.99 369.69 717.22 411.54 749.39 411.54 715.84 365.63 746.55 326.05 779.14 405.57 759.4 448.17 787.45 448.17 802.82 411.9 839.99 324.69 810.5 324.69 792.79 377.43"/>
    <path class="st2" d="M906.82,330.28c-1.97-1.53-4.14-2.86-6.52-3.98-4.83-2.26-10.22-3.4-16.17-3.4-8.22,0-15.52,1.97-21.89,5.9-6.37,3.93-11.38,9.29-15.01,16.08-3.64,6.79-5.45,14.54-5.45,23.23s1.81,16.44,5.45,23.23c3.63,6.79,8.64,12.15,15.01,16.08,6.37,3.93,13.67,5.9,21.89,5.9,5.96,0,11.38-1.22,16.26-3.66,2.57-1.29,4.89-2.81,6.97-4.56v6.44h26.8v-129.73h-27.34v48.47ZM899.14,386.07c-2.86,1.73-6.25,2.59-10.19,2.59-3.69,0-7.03-.89-10.01-2.68-2.98-1.79-5.3-4.23-6.97-7.33-1.67-3.1-2.5-6.61-2.5-10.54s.86-7.44,2.59-10.54c1.73-3.1,4.05-5.54,6.97-7.33,2.92-1.79,6.28-2.68,10.1-2.68s7.18.89,10.1,2.68c2.92,1.79,5.18,4.2,6.79,7.24,1.61,3.04,2.41,6.58,2.41,10.63s-.83,7.63-2.5,10.72c-1.67,3.1-3.93,5.51-6.79,7.24Z"/>
    <path class="st2" d="M1017.07,328.27c-6.55-3.69-14.12-5.54-22.69-5.54s-16.74,1.97-23.77,5.9c-7.03,3.93-12.6,9.32-16.71,16.17-4.11,6.85-6.17,14.62-6.17,23.32s2.08,16.5,6.25,23.41c4.17,6.91,9.92,12.3,17.24,16.17,7.33,3.87,15.69,5.81,25.11,5.81,7.27,0,13.94-1.25,20.01-3.75,6.08-2.5,11.26-6.25,15.55-11.26l-15.01-15.01c-2.62,2.98-5.66,5.21-9.11,6.7-3.46,1.49-7.33,2.23-11.62,2.23-4.65,0-8.67-.98-12.06-2.95-3.4-1.97-6.02-4.76-7.86-8.4-.61-1.21-1.12-2.5-1.52-3.87l62.19-.15c.47-2.26.8-4.26.98-5.99.18-1.73.27-3.36.27-4.91,0-8.46-1.88-15.96-5.63-22.52-3.75-6.55-8.91-11.67-15.46-15.37ZM983.39,346.58c3.16-1.97,6.88-2.95,11.17-2.95,4.05,0,7.47.87,10.27,2.59,2.8,1.73,4.91,4.23,6.34,7.51.6,1.38,1.08,2.91,1.45,4.59l-37.9.11c.37-1.25.81-2.44,1.34-3.54,1.73-3.57,4.17-6.34,7.33-8.31Z"/>
    <rect class="st2" x="1051.38" y="281.8" width="27.34" height="129.73"/>
    <rect class="st2" x="1098.02" y="281.8" width="27.34" height="129.73"/>
    <polygon class="st2" points="1244.64 370.2 1194.87 288.59 1185.58 288.59 1185.58 411.54 1198.62 411.54 1198.62 317.17 1239.9 384.91 1249.19 384.91 1290.47 317.17 1290.47 411.54 1303.7 411.54 1303.7 288.59 1294.4 288.59 1244.64 370.2"/>
    <path class="st2" d="M1389.92,330.95c-5.9-3.45-12.66-5.18-20.28-5.18-8.1,0-15.43,1.91-21.98,5.72-6.55,3.81-11.74,9.02-15.55,15.64-3.81,6.61-5.72,14.03-5.72,22.25s1.94,15.85,5.81,22.52c3.87,6.67,9.14,11.91,15.81,15.73,6.67,3.81,14.23,5.72,22.69,5.72,6.67,0,12.89-1.28,18.67-3.84,5.78-2.56,10.63-6.17,14.56-10.81l-8.04-8.22c-2.98,3.69-6.61,6.46-10.9,8.31-4.29,1.85-9,2.77-14.12,2.77-6.32,0-11.88-1.37-16.71-4.11-4.82-2.74-8.58-6.55-11.26-11.44-1.93-3.53-3.16-7.46-3.7-11.79h68.83c.36-1.67.59-3.13.71-4.38.12-1.25.18-2.35.18-3.31,0-7.98-1.7-15.04-5.09-21.18-3.4-6.13-8.04-10.93-13.94-14.39ZM1353.37,341.31c4.53-2.62,9.83-3.93,15.9-3.93s10.81,1.22,14.92,3.66c4.11,2.44,7.27,5.9,9.47,10.36,1.72,3.49,2.72,7.52,3.03,12.06h-57.44c.54-4.14,1.69-7.87,3.48-11.17,2.56-4.7,6.1-8.37,10.63-10.99Z"/>
    <path class="st2" d="M1494.72,341.58c-.32-.48-.64-.96-.98-1.43-3.4-4.58-7.66-8.13-12.78-10.63-5.12-2.5-10.84-3.75-17.15-3.75-7.75,0-14.71,1.94-20.91,5.81-6.2,3.87-11.11,9.11-14.74,15.73-3.64,6.61-5.45,14.09-5.45,22.43s1.81,15.64,5.45,22.25c3.63,6.61,8.55,11.82,14.74,15.64,6.19,3.81,13.16,5.72,20.91,5.72,6.43,0,12.21-1.31,17.33-3.93,5.12-2.62,9.32-6.22,12.6-10.81.34-.48.67-.98.98-1.48v14.43h12.51v-126.52h-12.51v56.56ZM1491.68,386.07c-2.5,4.82-5.96,8.58-10.36,11.26-4.41,2.68-9.53,4.02-15.37,4.02s-11.05-1.34-15.64-4.02c-4.59-2.68-8.16-6.43-10.72-11.26-2.56-4.82-3.84-10.33-3.84-16.53s1.28-11.7,3.84-16.53c2.56-4.83,6.1-8.61,10.63-11.35,4.53-2.74,9.71-4.11,15.55-4.11s10.96,1.37,15.37,4.11c4.41,2.74,7.89,6.49,10.45,11.26,2.56,4.77,3.84,10.31,3.84,16.62s-1.25,11.7-3.75,16.53Z"/>
    <rect class="st2" x="1532.6" y="327.55" width="12.69" height="83.99"/>
    <path class="st2" d="M1538.86,291.81c-2.38,0-4.41.83-6.08,2.5-1.67,1.67-2.5,3.75-2.5,6.25s.83,4.44,2.5,6.17c1.67,1.73,3.69,2.59,6.08,2.59,2.62,0,4.74-.86,6.34-2.59,1.61-1.73,2.41-3.78,2.41-6.17,0-2.5-.8-4.58-2.41-6.25-1.61-1.67-3.72-2.5-6.34-2.5Z"/>
    <path class="st2" d="M1622.13,398.58c-4.05,1.73-8.46,2.59-13.22,2.59-5.96,0-11.26-1.37-15.9-4.11-4.65-2.74-8.28-6.52-10.9-11.35-2.62-4.82-3.93-10.27-3.93-16.35s1.31-11.64,3.93-16.35c2.62-4.71,6.25-8.43,10.9-11.17,4.65-2.74,9.95-4.11,15.9-4.11,4.65,0,8.99.87,13.04,2.59,4.05,1.73,7.51,4.2,10.36,7.42l8.22-8.4c-3.81-4.29-8.46-7.62-13.94-10.01-5.48-2.38-11.38-3.57-17.69-3.57-8.22,0-15.64,1.91-22.25,5.72-6.61,3.81-11.86,9.02-15.73,15.64-3.87,6.61-5.81,14.03-5.81,22.25s1.94,15.67,5.81,22.34c3.87,6.67,9.11,11.94,15.73,15.81,6.61,3.87,14.03,5.81,22.25,5.81,6.31,0,12.24-1.19,17.78-3.57,5.54-2.38,10.27-5.78,14.21-10.19l-8.4-8.4c-2.86,3.22-6.32,5.69-10.36,7.42Z"/>
    <path class="st2" d="M1723.45,341.58c-.26-.42-.52-.84-.8-1.25-3.16-4.58-7.27-8.16-12.33-10.72-5.06-2.56-10.81-3.84-17.24-3.84-7.86,0-14.95,1.94-21.27,5.81-6.32,3.87-11.29,9.11-14.92,15.73-3.64,6.61-5.45,14.09-5.45,22.43s1.81,15.61,5.45,22.16c3.63,6.55,8.61,11.77,14.92,15.64,6.31,3.87,13.46,5.81,21.44,5.81,6.31,0,12-1.28,17.07-3.84,5.06-2.56,9.17-6.17,12.33-10.81.28-.41.54-.84.8-1.27v14.13h12.51v-83.99h-12.51v14.03ZM1716.21,392.6c-5.3,5.84-12.3,8.76-21,8.76-5.96,0-11.26-1.37-15.9-4.11-4.65-2.74-8.31-6.49-10.99-11.26-2.68-4.76-4.02-10.24-4.02-16.44s1.34-11.7,4.02-16.53c2.68-4.83,6.31-8.61,10.9-11.35,4.58-2.74,9.86-4.11,15.81-4.11s10.93,1.34,15.28,4.02c4.35,2.68,7.74,6.43,10.19,11.26,2.44,4.82,3.66,10.4,3.66,16.71,0,9.53-2.65,17.22-7.95,23.05Z"/>
    <rect class="st2" x="1761.33" y="285.02" width="12.51" height="126.52"/>
  </g>
  <g>
    <path class="st1" d="M429.88,268.9h-53.67v53.66h53.66v107.32h0c29.63,0,53.65-24.02,53.65-53.65h0v-53.67h0c0-29.64-24.02-53.66-53.65-53.66Z"/>
    <path class="st0" d="M322.56,215.24s0,0,0,0h0s0,0,0,0c-29.64,0-53.66,24.02-53.66,53.66h0v53.66h53.66v-53.66h0s0,0,0,0h53.66v-53.66h-53.66Z"/>
    <path class="st1" d="M268.89,376.22v-107.32h0c-29.63,0-53.65,24.02-53.65,53.65h0v53.67h0c0,29.64,24.02,53.66,53.65,53.66h53.66v-53.66h-53.66Z"/>
    <path class="st0" d="M376.22,376.22v53.66h-53.66v53.66h53.66c29.64,0,53.66-24.02,53.66-53.66h0v-53.66h-53.66Z"/>
  </g>
</svg>